<svg width="960" height="940" viewBox="0 0 960 940" xmlns="http://www.w3.org/2000/svg">
<style>
  .ts { font-family: system-ui, -apple-system, sans-serif; font-size: 12px; }
  .th { font-family: system-ui, -apple-system, sans-serif; font-size: 13px; font-weight: 600; }
  .sm { font-family: system-ui, sans-serif; font-size: 10px; }
  .xs { font-family: system-ui, sans-serif; font-size: 9px; }
</style>
<defs>
  <marker id="arrow" viewBox="0 0 10 10" refX="8" refY="5" markerWidth="6" markerHeight="6" orient="auto-start-reverse">
    <path d="M2 1L8 5L2 9" fill="none" stroke="context-stroke" stroke-width="1.5" stroke-linecap="round" stroke-linejoin="round"/>
  </marker>
</defs>

<!-- ===== ENTRY LAYER ===== -->
<rect x="20" y="16" width="160" height="100" rx="12" fill="#F7F7F8" stroke="#E0E0E0" stroke-width="0.5"/>
<text class="ts" x="100" y="34" text-anchor="middle" fill="#666">Entry</text>
<circle cx="60" cy="62" r="10" fill="none" stroke="#534AB7" stroke-width="1.2"/>
<circle cx="60" cy="56" r="4" fill="none" stroke="#534AB7" stroke-width="1"/>
<path d="M48 72Q60 80 72 72" fill="none" stroke="#534AB7" stroke-width="1"/>
<text class="ts" x="60" y="90" text-anchor="middle" fill="#534AB7">User query</text>
<rect x="110" y="50" width="56" height="24" rx="6" fill="#EEEDFE" stroke="#534AB7" stroke-width="0.5"/>
<text class="ts" x="138" y="66" text-anchor="middle" fill="#3C3489">Feishu</text>
<text class="ts" x="138" y="90" text-anchor="middle" fill="#999">Relay</text>
<line x1="180" y1="66" x2="210" y2="66" stroke="#534AB7" stroke-width="1" marker-end="url(#arrow)"/>

<!-- ===== FRONTEND LAYER (Holographic UI) ===== -->
<rect x="210" y="16" width="730" height="100" rx="12" fill="#E6F1FB" stroke="#85B7EB" stroke-width="0.5"/>
<text class="ts" x="575" y="34" text-anchor="middle" fill="#0C447C">Frontend layer — Holographic Command Deck UI</text>
<rect x="224" y="44" width="82" height="36" rx="6" fill="#fff" stroke="#85B7EB" stroke-width="0.5"/>
<text class="ts" x="265" y="58" text-anchor="middle" fill="#0C447C">3D office</text>
<text class="sm" x="265" y="72" text-anchor="middle" fill="#185FA5">Three.js</text>
<rect x="314" y="44" width="82" height="36" rx="6" fill="#fff" stroke="#85B7EB" stroke-width="0.5"/>
<text class="ts" x="355" y="58" text-anchor="middle" fill="#0C447C">HoloDock</text>
<text class="sm" x="355" y="72" text-anchor="middle" fill="#185FA5">capsule nav</text>
<rect x="404" y="44" width="82" height="36" rx="6" fill="#fff" stroke="#85B7EB" stroke-width="0.5"/>
<text class="ts" x="445" y="58" text-anchor="middle" fill="#0C447C">NL command</text>
<text class="sm" x="445" y="72" text-anchor="middle" fill="#185FA5">center</text>
<rect x="494" y="44" width="82" height="36" rx="6" fill="#fff" stroke="#85B7EB" stroke-width="0.5"/>
<text class="ts" x="535" y="58" text-anchor="middle" fill="#0C447C">Cost govern</text>
<text class="sm" x="535" y="72" text-anchor="middle" fill="#185FA5">panel</text>
<rect x="584" y="44" width="82" height="36" rx="6" fill="#fff" stroke="#85B7EB" stroke-width="0.5"/>
<text class="ts" x="625" y="58" text-anchor="middle" fill="#0C447C">Lineage DAG</text>
<text class="sm" x="625" y="72" text-anchor="middle" fill="#185FA5">visualization</text>
<rect x="674" y="44" width="82" height="36" rx="6" fill="#fff" stroke="#85B7EB" stroke-width="0.5"/>
<text class="ts" x="715" y="58" text-anchor="middle" fill="#0C447C">Audit panel</text>
<text class="sm" x="715" y="72" text-anchor="middle" fill="#185FA5">timeline</text>
<rect x="764" y="44" width="82" height="36" rx="6" fill="#fff" stroke="#85B7EB" stroke-width="0.5"/>
<text class="ts" x="805" y="58" text-anchor="middle" fill="#0C447C">Browser RT</text>
<text class="sm" x="805" y="72" text-anchor="middle" fill="#185FA5">IndexedDB</text>

<line x1="445" y1="116" x2="445" y2="148" stroke="#85B7EB" stroke-width="1" marker-end="url(#arrow)"/>
<line x1="625" y1="116" x2="625" y2="148" stroke="#85B7EB" stroke-width="1" marker-end="url(#arrow)"/>

<!-- ===== CUBE BRAIN ===== -->
<rect x="210" y="148" width="310" height="290" rx="14" fill="#EAF3DE" stroke="#97C459" stroke-width="0.5"/>
<text class="th" x="365" y="170" text-anchor="middle" fill="#27500A">Cube brain (server)</text>
<rect x="228" y="184" width="120" height="40" rx="6" fill="#fff" stroke="#97C459" stroke-width="0.5"/>
<text class="ts" x="288" y="200" text-anchor="middle" fill="#27500A">Express API</text>
<text class="sm" x="288" y="214" text-anchor="middle" fill="#3B6D11">REST + Socket.IO</text>
<rect x="228" y="234" width="120" height="40" rx="6" fill="#fff" stroke="#97C459" stroke-width="0.5"/>
<text class="ts" x="288" y="250" text-anchor="middle" fill="#27500A">Dyn. org gen</text>
<text class="sm" x="288" y="264" text-anchor="middle" fill="#3B6D11">CEO/Mgr/Worker</text>
<rect x="228" y="284" width="120" height="40" rx="6" fill="#fff" stroke="#97C459" stroke-width="0.5"/>
<text class="ts" x="288" y="300" text-anchor="middle" fill="#27500A">10-stage engine</text>
<text class="sm" x="288" y="314" text-anchor="middle" fill="#3B6D11">workflow pipeline</text>
<rect x="228" y="334" width="120" height="40" rx="6" fill="#fff" stroke="#97C459" stroke-width="0.5"/>
<text class="ts" x="288" y="350" text-anchor="middle" fill="#27500A">Mission RT</text>
<text class="sm" x="288" y="364" text-anchor="middle" fill="#3B6D11">6-stage FSM</text>
<rect x="228" y="384" width="120" height="40" rx="6" fill="#fff" stroke="#97C459" stroke-width="0.5"/>
<text class="ts" x="288" y="400" text-anchor="middle" fill="#27500A">Guest Agent</text>
<text class="sm" x="288" y="414" text-anchor="middle" fill="#3B6D11">marketplace</text>
<rect x="380" y="184" width="120" height="40" rx="6" fill="#fff" stroke="#97C459" stroke-width="0.5"/>
<text class="ts" x="440" y="200" text-anchor="middle" fill="#27500A">Skill system</text>
<text class="sm" x="440" y="214" text-anchor="middle" fill="#3B6D11">hot-plug</text>
<rect x="380" y="234" width="120" height="40" rx="6" fill="#fff" stroke="#97C459" stroke-width="0.5"/>
<text class="ts" x="440" y="250" text-anchor="middle" fill="#27500A">Role system</text>
<text class="sm" x="440" y="264" text-anchor="middle" fill="#3B6D11">dynamic switch</text>
<rect x="380" y="284" width="120" height="40" rx="6" fill="#fff" stroke="#97C459" stroke-width="0.5"/>
<text class="ts" x="440" y="300" text-anchor="middle" fill="#27500A">Cost governance</text>
<text class="sm" x="440" y="314" text-anchor="middle" fill="#3B6D11">budget + alerts</text>
<rect x="380" y="334" width="120" height="40" rx="6" fill="#fff" stroke="#97C459" stroke-width="0.5"/>
<text class="ts" x="440" y="350" text-anchor="middle" fill="#27500A">Review system</text>
<text class="sm" x="440" y="364" text-anchor="middle" fill="#3B6D11">20-point scoring</text>
<rect x="380" y="384" width="120" height="40" rx="6" fill="#fff" stroke="#97C459" stroke-width="0.5"/>
<text class="ts" x="440" y="400" text-anchor="middle" fill="#27500A">Permission</text>
<text class="sm" x="440" y="414" text-anchor="middle" fill="#3B6D11">RBAC matrix</text>
<line x1="348" y1="304" x2="378" y2="304" stroke="#97C459" stroke-width="0.8" marker-end="url(#arrow)"/>
<line x1="348" y1="254" x2="378" y2="254" stroke="#97C459" stroke-width="0.8" marker-end="url(#arrow)"/>

<!-- ===== INTELLIGENCE LAYER ===== -->
<rect x="550" y="148" width="390" height="190" rx="14" fill="#FAEEDA" stroke="#FAC775" stroke-width="0.5"/>
<text class="th" x="745" y="170" text-anchor="middle" fill="#412402">Intelligence layer</text>
<rect x="568" y="184" width="108" height="40" rx="6" fill="#fff" stroke="#FAC775" stroke-width="0.5"/>
<text class="ts" x="622" y="200" text-anchor="middle" fill="#633806">3-tier memory</text>
<text class="sm" x="622" y="214" text-anchor="middle" fill="#854F0B">short/mid/long</text>
<rect x="568" y="234" width="108" height="40" rx="6" fill="#fff" stroke="#FAC775" stroke-width="0.5"/>
<text class="ts" x="622" y="250" text-anchor="middle" fill="#633806">Knowledge graph</text>
<text class="sm" x="622" y="264" text-anchor="middle" fill="#854F0B">entity + relation</text>
<rect x="568" y="284" width="108" height="40" rx="6" fill="#fff" stroke="#FAC775" stroke-width="0.5"/>
<text class="ts" x="622" y="300" text-anchor="middle" fill="#633806">Vector DB + RAG</text>
<text class="sm" x="622" y="314" text-anchor="middle" fill="#854F0B">7-step pipeline</text>
<rect x="700" y="184" width="108" height="40" rx="6" fill="#fff" stroke="#FAC775" stroke-width="0.5"/>
<text class="ts" x="754" y="200" text-anchor="middle" fill="#633806">Self-evolution</text>
<text class="sm" x="754" y="214" text-anchor="middle" fill="#854F0B">auto persona fix</text>
<rect x="700" y="234" width="108" height="40" rx="6" fill="#fff" stroke="#FAC775" stroke-width="0.5"/>
<text class="ts" x="754" y="250" text-anchor="middle" fill="#633806">Reputation</text>
<text class="sm" x="754" y="264" text-anchor="middle" fill="#854F0B">score + decay</text>
<rect x="700" y="284" width="108" height="40" rx="6" fill="#fff" stroke="#FAC775" stroke-width="0.5"/>
<text class="ts" x="754" y="300" text-anchor="middle" fill="#633806">Autonomy</text>
<text class="sm" x="754" y="314" text-anchor="middle" fill="#854F0B">self-eval + compete</text>
<rect x="830" y="184" width="96" height="60" rx="6" fill="#EEEDFE" stroke="#AFA9EC" stroke-width="0.5"/>
<text class="ts" x="878" y="204" text-anchor="middle" fill="#3C3489">LLM provider</text>
<text class="sm" x="878" y="220" text-anchor="middle" fill="#534AB7">OpenAI compat.</text>
<text class="sm" x="878" y="236" text-anchor="middle" fill="#534AB7">multi-provider</text>
<line x1="520" y1="254" x2="566" y2="254" stroke="#BA7517" stroke-width="1" marker-end="url(#arrow)"/>
<line x1="520" y1="304" x2="566" y2="304" stroke="#BA7517" stroke-width="1" marker-end="url(#arrow)"/>

<!-- ===== TRUST & COMPLIANCE LAYER (NEW) ===== -->
<rect x="550" y="358" width="390" height="80" rx="14" fill="#F0E6FF" stroke="#B794F4" stroke-width="0.5"/>
<text class="th" x="745" y="378" text-anchor="middle" fill="#44337A">Trust &amp; compliance</text>
<rect x="568" y="390" width="108" height="36" rx="6" fill="#fff" stroke="#B794F4" stroke-width="0.5"/>
<text class="ts" x="622" y="406" text-anchor="middle" fill="#44337A">Audit chain</text>
<text class="sm" x="622" y="420" text-anchor="middle" fill="#6B46C1">hash-linked log</text>
<rect x="700" y="390" width="108" height="36" rx="6" fill="#fff" stroke="#B794F4" stroke-width="0.5"/>
<text class="ts" x="754" y="406" text-anchor="middle" fill="#44337A">Data lineage</text>
<text class="sm" x="754" y="420" text-anchor="middle" fill="#6B46C1">DAG tracking</text>
<rect x="830" y="390" width="96" height="36" rx="6" fill="#fff" stroke="#B794F4" stroke-width="0.5"/>
<text class="ts" x="878" y="406" text-anchor="middle" fill="#44337A">Anomaly det.</text>
<text class="sm" x="878" y="420" text-anchor="middle" fill="#6B46C1">compliance</text>

<!-- ===== EXECUTION LAYER (Docker) ===== -->
<rect x="210" y="470" width="520" height="120" rx="14" fill="#FAECE7" stroke="#F0997B" stroke-width="0.5"/>
<text class="th" x="470" y="490" text-anchor="middle" fill="#4A1B0C">Execution layer (Docker)</text>
<rect x="228" y="502" width="100" height="40" rx="6" fill="#fff" stroke="#F0997B" stroke-width="0.5"/>
<text class="ts" x="278" y="518" text-anchor="middle" fill="#712B13">Lobster exec</text>
<text class="sm" x="278" y="532" text-anchor="middle" fill="#993C1D">dockerode</text>
<rect x="338" y="502" width="100" height="40" rx="6" fill="#fff" stroke="#F0997B" stroke-width="0.5"/>
<text class="ts" x="388" y="518" text-anchor="middle" fill="#712B13">HMAC callback</text>
<text class="sm" x="388" y="532" text-anchor="middle" fill="#993C1D">signed events</text>
<rect x="448" y="502" width="100" height="40" rx="6" fill="#fff" stroke="#F0997B" stroke-width="0.5"/>
<text class="ts" x="498" y="518" text-anchor="middle" fill="#712B13">Secure sandbox</text>
<text class="sm" x="498" y="532" text-anchor="middle" fill="#993C1D">seccomp + caps</text>
<rect x="558" y="502" width="100" height="40" rx="6" fill="#fff" stroke="#F0997B" stroke-width="0.5"/>
<text class="ts" x="608" y="518" text-anchor="middle" fill="#712B13">Live preview</text>
<text class="sm" x="608" y="532" text-anchor="middle" fill="#993C1D">terminal + screenshot</text>
<rect x="228" y="548" width="100" height="30" rx="6" fill="#EEEDFE" stroke="#AFA9EC" stroke-width="0.5"/>
<text class="ts" x="278" y="568" text-anchor="middle" fill="#3C3489">AI inject</text>
<rect x="338" y="548" width="100" height="30" rx="6" fill="#F7F7F8" stroke="#E0E0E0" stroke-width="0.5"/>
<text class="ts" x="388" y="568" text-anchor="middle" fill="#666">Concurrency</text>
<rect x="448" y="548" width="100" height="30" rx="6" fill="#F7F7F8" stroke="#E0E0E0" stroke-width="0.5"/>
<text class="ts" x="498" y="568" text-anchor="middle" fill="#666">Log batcher</text>
<rect x="558" y="548" width="100" height="30" rx="6" fill="#F7F7F8" stroke="#E0E0E0" stroke-width="0.5"/>
<text class="ts" x="608" y="568" text-anchor="middle" fill="#666">Docker daemon</text>

<!-- Arrows: Brain → Executor -->
<line x1="288" y1="438" x2="288" y2="500" stroke="#D85A30" stroke-width="1" marker-end="url(#arrow)"/>
<text class="ts" x="296" y="468" fill="#993C1D">Exec plan</text>
<line x1="328" y1="522" x2="336" y2="522" stroke="#D85A30" stroke-width="0.8" marker-end="url(#arrow)"/>
<line x1="438" y1="522" x2="446" y2="522" stroke="#D85A30" stroke-width="0.8" marker-end="url(#arrow)"/>
<line x1="548" y1="522" x2="556" y2="522" stroke="#D85A30" stroke-width="0.8" marker-end="url(#arrow)"/>
<path d="M388 502 L388 460 L440 460 L440 438" fill="none" stroke="#D85A30" stroke-width="1" stroke-dasharray="4 3" marker-end="url(#arrow)"/>
<text class="sm" x="430" y="454" fill="#993C1D">HMAC callback</text>

<!-- ===== INTEROP LAYER (NEW) ===== -->
<rect x="750" y="470" width="190" height="120" rx="12" fill="#E6FFFA" stroke="#38B2AC" stroke-width="0.5"/>
<text class="th" x="845" y="490" text-anchor="middle" fill="#234E52">Interop layer</text>
<rect x="762" y="502" width="166" height="34" rx="6" fill="#fff" stroke="#38B2AC" stroke-width="0.5"/>
<text class="ts" x="845" y="518" text-anchor="middle" fill="#234E52">A2A protocol</text>
<text class="sm" x="845" y="530" text-anchor="middle" fill="#2C7A7B">CrewAI / LangGraph</text>
<rect x="762" y="546" width="80" height="34" rx="6" fill="#fff" stroke="#38B2AC" stroke-width="0.5"/>
<text class="ts" x="802" y="562" text-anchor="middle" fill="#234E52">Swarm</text>
<text class="sm" x="802" y="574" text-anchor="middle" fill="#2C7A7B">cross-pod</text>
<rect x="848" y="546" width="80" height="34" rx="6" fill="#fff" stroke="#38B2AC" stroke-width="0.5"/>
<text class="ts" x="888" y="562" text-anchor="middle" fill="#234E52">Guest</text>
<text class="sm" x="888" y="574" text-anchor="middle" fill="#2C7A7B">marketplace</text>
<!-- Arrow: Brain → Interop -->
<line x1="520" y1="404" x2="760" y2="510" stroke="#38B2AC" stroke-width="1" stroke-dasharray="4 3" marker-end="url(#arrow)"/>

<!-- ===== SHARED CONTRACTS ===== -->
<rect x="20" y="148" width="170" height="290" rx="12" fill="#FBEAF0" stroke="#ED93B1" stroke-width="0.5"/>
<text class="th" x="105" y="170" text-anchor="middle" fill="#4B1528">Shared contracts</text>
<text class="ts" x="36" y="194" fill="#72243E">cost.ts</text>
<text class="ts" x="36" y="214" fill="#72243E">cost-governance.ts</text>
<text class="ts" x="36" y="234" fill="#72243E">llm/contracts.ts</text>
<text class="ts" x="36" y="254" fill="#72243E">rag/contracts.ts</text>
<text class="ts" x="36" y="274" fill="#72243E">skill/contracts.ts</text>
<text class="ts" x="36" y="294" fill="#72243E">export/contracts.ts</text>
<text class="ts" x="36" y="314" fill="#72243E">audit/contracts.ts</text>
<text class="ts" x="36" y="334" fill="#72243E">lineage/contracts.ts</text>
<text class="ts" x="36" y="354" fill="#72243E">a2a-protocol.ts</text>
<text class="ts" x="36" y="374" fill="#72243E">mission/contracts.ts</text>
<text class="ts" x="36" y="394" fill="#72243E">swarm.ts</text>
<text class="sm" x="105" y="420" text-anchor="middle" fill="#993556">11+ frozen contract modules</text>
<line x1="190" y1="268" x2="226" y2="268" stroke="#ED93B1" stroke-width="0.5" stroke-dasharray="3 3"/>

<!-- ===== RUNNER STRATEGY ===== -->
<rect x="20" y="470" width="170" height="120" rx="12" fill="#F7F7F8" stroke="#E0E0E0" stroke-width="0.5"/>
<text class="th" x="105" y="490" text-anchor="middle" fill="#333">Runner strategy</text>
<rect x="34" y="504" width="142" height="30" rx="6" fill="#EAF3DE" stroke="#97C459" stroke-width="0.5"/>
<text class="ts" x="105" y="524" text-anchor="middle" fill="#27500A">DockerRunner (real)</text>
<rect x="34" y="544" width="142" height="30" rx="6" fill="#E6F1FB" stroke="#85B7EB" stroke-width="0.5"/>
<text class="ts" x="105" y="564" text-anchor="middle" fill="#0C447C">MockRunner (mock)</text>
<line x1="190" y1="522" x2="226" y2="522" stroke="#97C459" stroke-width="0.8" marker-end="url(#arrow)"/>

<!-- ===== WORKFLOW PIPELINE ===== -->
<rect x="20" y="620" width="920" height="150" rx="14" fill="#F7F7F8" stroke="#E0E0E0" stroke-width="0.5"/>
<text class="th" x="480" y="644" text-anchor="middle" fill="#333">10-stage workflow pipeline</text>
<rect x="40" y="660" width="88" height="44" rx="6" fill="#EEEDFE" stroke="#AFA9EC" stroke-width="0.5"/>
<text class="ts" x="84" y="678" text-anchor="middle" fill="#3C3489">1. Assemble</text>
<text class="xs" x="84" y="694" text-anchor="middle" fill="#534AB7">dyn. org</text>
<line x1="128" y1="682" x2="146" y2="682" stroke="#AFA9EC" stroke-width="0.8" marker-end="url(#arrow)"/>
<rect x="148" y="660" width="88" height="44" rx="6" fill="#EEEDFE" stroke="#AFA9EC" stroke-width="0.5"/>
<text class="ts" x="192" y="678" text-anchor="middle" fill="#3C3489">2. CEO split</text>
<text class="xs" x="192" y="694" text-anchor="middle" fill="#534AB7">decompose</text>
<line x1="236" y1="682" x2="254" y2="682" stroke="#AFA9EC" stroke-width="0.8" marker-end="url(#arrow)"/>
<rect x="256" y="660" width="88" height="44" rx="6" fill="#EEEDFE" stroke="#AFA9EC" stroke-width="0.5"/>
<text class="ts" x="300" y="678" text-anchor="middle" fill="#3C3489">3. Mgr plan</text>
<text class="xs" x="300" y="694" text-anchor="middle" fill="#534AB7">assign tasks</text>
<line x1="344" y1="682" x2="362" y2="682" stroke="#AFA9EC" stroke-width="0.8" marker-end="url(#arrow)"/>
<rect x="364" y="660" width="88" height="44" rx="6" fill="#E6F1FB" stroke="#85B7EB" stroke-width="0.5"/>
<text class="ts" x="408" y="678" text-anchor="middle" fill="#0C447C">4. Execute</text>
<text class="xs" x="408" y="694" text-anchor="middle" fill="#185FA5">parallel work</text>
<line x1="452" y1="682" x2="470" y2="682" stroke="#85B7EB" stroke-width="0.8" marker-end="url(#arrow)"/>
<rect x="472" y="660" width="88" height="44" rx="6" fill="#EAF3DE" stroke="#97C459" stroke-width="0.5"/>
<text class="ts" x="516" y="678" text-anchor="middle" fill="#27500A">5. Review</text>
<text class="xs" x="516" y="694" text-anchor="middle" fill="#3B6D11">20-pt score</text>
<line x1="560" y1="682" x2="578" y2="682" stroke="#97C459" stroke-width="0.8" marker-end="url(#arrow)"/>
<rect x="580" y="660" width="72" height="44" rx="6" fill="#FAEEDA" stroke="#FAC775" stroke-width="0.5"/>
<text class="ts" x="616" y="678" text-anchor="middle" fill="#633806">6. Audit</text>
<text class="xs" x="616" y="694" text-anchor="middle" fill="#854F0B">meta</text>
<line x1="652" y1="682" x2="664" y2="682" stroke="#FAC775" stroke-width="0.8" marker-end="url(#arrow)"/>
<rect x="666" y="660" width="72" height="44" rx="6" fill="#FAECE7" stroke="#F0997B" stroke-width="0.5"/>
<text class="ts" x="702" y="678" text-anchor="middle" fill="#712B13">7. Revise</text>
<text class="xs" x="702" y="694" text-anchor="middle" fill="#993C1D">fix</text>
<line x1="738" y1="682" x2="750" y2="682" stroke="#F0997B" stroke-width="0.8" marker-end="url(#arrow)"/>
<rect x="752" y="660" width="72" height="44" rx="6" fill="#EAF3DE" stroke="#97C459" stroke-width="0.5"/>
<text class="ts" x="788" y="678" text-anchor="middle" fill="#27500A">8. Verify</text>
<text class="xs" x="788" y="694" text-anchor="middle" fill="#3B6D11">confirm</text>
<line x1="824" y1="682" x2="836" y2="682" stroke="#97C459" stroke-width="0.8" marker-end="url(#arrow)"/>
<rect x="838" y="660" width="44" height="44" rx="6" fill="#E6F1FB" stroke="#85B7EB" stroke-width="0.5"/>
<text class="ts" x="860" y="686" text-anchor="middle" fill="#0C447C">9</text>
<line x1="882" y1="682" x2="894" y2="682" stroke="#85B7EB" stroke-width="0.8" marker-end="url(#arrow)"/>
<rect x="896" y="660" width="36" height="44" rx="6" fill="#FBEAF0" stroke="#ED93B1" stroke-width="0.5"/>
<text class="ts" x="914" y="686" text-anchor="middle" fill="#72243E">10</text>
<text class="ts" x="860" y="722" text-anchor="middle" fill="#666">Aggregate</text>
<text class="ts" x="914" y="722" text-anchor="middle" fill="#666">Evolve</text>
<path d="M702 704 L702 738 L408 738 L408 704" fill="none" stroke="#D85A30" stroke-width="0.8" stroke-dasharray="4 3" marker-end="url(#arrow)"/>
<text class="sm" x="555" y="750" text-anchor="middle" fill="#993C1D">Score &lt; 16 ? Revise and re-execute</text>

<!-- ===== DUAL RUNTIME ===== -->
<rect x="20" y="800" width="440" height="50" rx="12" fill="#F7F7F8" stroke="#E0E0E0" stroke-width="0.5"/>
<text class="th" x="240" y="822" text-anchor="middle" fill="#333">Dual runtime</text>
<rect x="34" y="808" width="190" height="30" rx="6" fill="#E6F1FB" stroke="#85B7EB" stroke-width="0.5"/>
<text class="ts" x="129" y="828" text-anchor="middle" fill="#0C447C">Frontend: Browser + IndexedDB</text>
<rect x="234" y="808" width="210" height="30" rx="6" fill="#EAF3DE" stroke="#97C459" stroke-width="0.5"/>
<text class="ts" x="339" y="828" text-anchor="middle" fill="#27500A">Advanced: Express + Docker</text>

<!-- ===== LEGEND ===== -->
<rect x="20" y="870" width="920" height="60" rx="6" fill="#F7F7F8" stroke="#E0E0E0" stroke-width="0.3"/>
<circle cx="50" cy="888" r="5" fill="#EAF3DE" stroke="#97C459" stroke-width="0.5"/>
<text class="sm" x="60" y="892" fill="#666">Server</text>
<circle cx="120" cy="888" r="5" fill="#E6F1FB" stroke="#85B7EB" stroke-width="0.5"/>
<text class="sm" x="130" y="892" fill="#666">Frontend</text>
<circle cx="200" cy="888" r="5" fill="#FAEEDA" stroke="#FAC775" stroke-width="0.5"/>
<text class="sm" x="210" y="892" fill="#666">Intelligence</text>
<circle cx="300" cy="888" r="5" fill="#FAECE7" stroke="#F0997B" stroke-width="0.5"/>
<text class="sm" x="310" y="892" fill="#666">Execution</text>
<circle cx="400" cy="888" r="5" fill="#FBEAF0" stroke="#ED93B1" stroke-width="0.5"/>
<text class="sm" x="410" y="892" fill="#666">Contracts</text>
<circle cx="490" cy="888" r="5" fill="#F0E6FF" stroke="#B794F4" stroke-width="0.5"/>
<text class="sm" x="500" y="892" fill="#666">Trust</text>
<circle cx="550" cy="888" r="5" fill="#E6FFFA" stroke="#38B2AC" stroke-width="0.5"/>
<text class="sm" x="560" y="892" fill="#666">Interop</text>
<circle cx="620" cy="888" r="5" fill="#EEEDFE" stroke="#AFA9EC" stroke-width="0.5"/>
<text class="sm" x="630" y="892" fill="#666">Workflow</text>
<line x1="700" y1="888" x2="730" y2="888" stroke="#D85A30" stroke-width="1" marker-end="url(#arrow)"/>
<text class="sm" x="740" y="892" fill="#666">Data flow</text>
<line x1="810" y1="888" x2="840" y2="888" stroke="#D85A30" stroke-width="0.8" stroke-dasharray="4 3" marker-end="url(#arrow)"/>
<text class="sm" x="850" y="892" fill="#666">Callback / async</text>
<text class="sm" x="480" y="918" text-anchor="middle" fill="#999">Cube Pets Office v0.38 — 38/39 specs complete — 180K+ lines TypeScript</text>

</svg>
