<svg width="1600" height="900" viewBox="0 0 1600 900" xmlns="http://www.w3.org/2000/svg" role="img" aria-labelledby="title desc">
  <title id="title">第二层：需要服务端，不需要 Docker 架构图</title>
  <desc id="desc">展示第二层并行组 D/E/F、独立项 L17-L21、输入依赖、输出结果和升级关注点。</desc>
  <style>
    .title { font-family: "Microsoft YaHei", "PingFang SC", "Noto Sans SC", sans-serif; font-size: 34px; font-weight: 800; fill: #0f172a; }
    .subtitle { font-family: "Microsoft YaHei", "PingFang SC", "Noto Sans SC", sans-serif; font-size: 18px; font-weight: 500; fill: #475569; }
    .label { font-family: "Microsoft YaHei", "PingFang SC", "Noto Sans SC", sans-serif; font-size: 15px; font-weight: 700; fill: #0f172a; }
    .section { font-family: "Microsoft YaHei", "PingFang SC", "Noto Sans SC", sans-serif; font-size: 22px; font-weight: 800; fill: #102541; }
    .cardTitle { font-family: "Microsoft YaHei", "PingFang SC", "Noto Sans SC", sans-serif; font-size: 19px; font-weight: 800; fill: #0f172a; }
    .body { font-family: "Microsoft YaHei", "PingFang SC", "Noto Sans SC", sans-serif; font-size: 17px; font-weight: 500; fill: #334155; }
    .meta { font-family: "JetBrains Mono", "Cascadia Mono", monospace; font-size: 14px; font-weight: 600; fill: #64748b; }
    .small { font-family: "Microsoft YaHei", "PingFang SC", "Noto Sans SC", sans-serif; font-size: 15px; font-weight: 500; fill: #475569; }
  </style>

  <defs>
    <linearGradient id="bg" x1="0" y1="0" x2="1" y2="1">
      <stop offset="0%" stop-color="#f8fbff" />
      <stop offset="50%" stop-color="#f7f8fc" />
      <stop offset="100%" stop-color="#fdf7f2" />
    </linearGradient>
    <linearGradient id="hero" x1="0" y1="0" x2="1" y2="1">
      <stop offset="0%" stop-color="#eff6ff" />
      <stop offset="55%" stop-color="#ecfeff" />
      <stop offset="100%" stop-color="#f0fdf4" />
    </linearGradient>
    <linearGradient id="panel" x1="0" y1="0" x2="1" y2="1">
      <stop offset="0%" stop-color="#ffffff" />
      <stop offset="100%" stop-color="#f8fafc" />
    </linearGradient>
    <filter id="shadow" x="-10%" y="-10%" width="120%" height="120%">
      <feDropShadow dx="0" dy="10" stdDeviation="16" flood-color="#0f172a" flood-opacity="0.08" />
    </filter>
    <marker id="arrow" viewBox="0 0 10 10" refX="8.4" refY="5" markerWidth="7" markerHeight="7" orient="auto-start-reverse">
      <path d="M1 1 L9 5 L1 9" fill="none" stroke="context-stroke" stroke-width="1.6" stroke-linecap="round" stroke-linejoin="round" />
    </marker>
    <pattern id="grid" width="40" height="40" patternUnits="userSpaceOnUse">
      <path d="M40 0 L0 0 0 40" fill="none" stroke="#d9e4f1" stroke-width="1" opacity="0.6" />
    </pattern>
  </defs>

  <rect width="1600" height="900" fill="url(#bg)" />
  <rect width="1600" height="900" fill="url(#grid)" opacity="0.45" />

  <g filter="url(#shadow)">
    <rect x="36" y="30" width="1528" height="128" rx="28" fill="url(#hero)" stroke="#cbd5e1" />
  </g>
  <text class="title" x="68" y="78">第二层：需要服务端，不需要 Docker</text>
  <text class="subtitle" x="68" y="110">目标：把任务编排、Agent 能力、记忆系统和控制入口接入服务端，但暂时不引入容器执行依赖。</text>
  <rect x="1286" y="56" width="224" height="38" rx="19" fill="#dcfce7" stroke="#86efac" />
  <text class="label" x="1338" y="81">状态：已完成</text>

  <g filter="url(#shadow)">
    <rect x="48" y="206" width="260" height="430" rx="28" fill="url(#panel)" stroke="#bfd3ea" />
    <rect x="336" y="206" width="996" height="430" rx="28" fill="url(#panel)" stroke="#bfd3ea" />
    <rect x="1360" y="206" width="192" height="430" rx="28" fill="url(#panel)" stroke="#bfd3ea" />
    <rect x="48" y="670" width="1504" height="182" rx="28" fill="url(#panel)" stroke="#bfd3ea" />
  </g>

  <text class="section" x="76" y="246">输入依赖</text>
  <text class="body" x="76" y="286">
    <tspan x="76" dy="0">继承阶段 0 的共享契约，</tspan>
    <tspan x="76" dy="28">以及第一层产出的</tspan>
    <tspan x="76" dy="28">前端状态模型、任务视图、</tspan>
    <tspan x="76" dy="28">事件和观测面板。</tspan>
  </text>
  <rect x="76" y="452" width="204" height="126" rx="18" fill="#eff6ff" stroke="#93c5fd" />
  <text class="cardTitle" x="96" y="486">特征</text>
  <text class="small" x="96" y="516">
    <tspan x="96" dy="0">需要服务端 API</tspan>
    <tspan x="96" dy="22">但无需 Docker 执行器</tspan>
    <tspan x="96" dy="22">适合继续多线并行</tspan>
  </text>

  <text class="section" x="368" y="246">并行组与独立项</text>

  <rect x="368" y="278" width="296" height="152" rx="22" fill="#eff6ff" stroke="#93c5fd" />
  <text class="cardTitle" x="390" y="314">并行组 D</text>
  <text class="meta" x="390" y="340">L10 workflow-decoupling / L11 mission-native-projection</text>
  <text class="small" x="390" y="372">
    <tspan x="390" dy="0">先把 mission-first 数据源收口，</tspan>
    <tspan x="390" dy="22">再给前端提供稳定服务端投影。</tspan>
  </text>

  <rect x="694" y="278" width="296" height="152" rx="22" fill="#eef2ff" stroke="#a5b4fc" />
  <text class="cardTitle" x="716" y="314">并行组 E</text>
  <text class="meta" x="716" y="340">L12 skill / L13 role / L14 human-in-the-loop</text>
  <text class="small" x="716" y="372">
    <tspan x="716" dy="0">增强 Agent 的角色切换、审批与</tspan>
    <tspan x="716" dy="22">可插拔能力，形成“可控智能层”。</tspan>
  </text>

  <rect x="1020" y="278" width="284" height="152" rx="22" fill="#ecfdf5" stroke="#86efac" />
  <text class="cardTitle" x="1042" y="314">并行组 F</text>
  <text class="meta" x="1042" y="340">L15 knowledge-graph / L16 vector-db-rag-pipeline</text>
  <text class="small" x="1042" y="372">
    <tspan x="1042" dy="0">把结构化知识图谱和向量检索</tspan>
    <tspan x="1042" dy="22">升成服务端 Memory / RAG 主链。</tspan>
  </text>

  <rect x="368" y="458" width="936" height="134" rx="22" fill="#f8fafc" stroke="#cbd5e1" />
  <text class="cardTitle" x="392" y="494">独立可做：L17-L21</text>
  <text class="body" x="392" y="526">
    <tspan x="392" dy="0">自然语言指挥中心、Agent 自评估、信誉评分、多模态编排、成本治理。</tspan>
    <tspan x="392" dy="28">这些能力能直接长在服务端编排层上，为第三层容器执行准备更完整的控制语义。</tspan>
  </text>

  <text class="section" x="1386" y="246">输出</text>
  <text class="body" x="1386" y="286">
    <tspan x="1386" dy="0">得到稳定的</tspan>
    <tspan x="1386" dy="28">任务服务端、Agent 控制层、</tspan>
    <tspan x="1386" dy="28">Memory / RAG 能力底座。</tspan>
  </text>
  <rect x="1382" y="402" width="148" height="176" rx="18" fill="#f0fdf4" stroke="#86efac" />
  <text class="cardTitle" x="1400" y="438">去向</text>
  <text class="small" x="1400" y="468">
    <tspan x="1400" dy="0">第三层：</tspan>
    <tspan x="1400" dy="22">L22-L25 主执行链</tspan>
    <tspan x="1400" dy="22">L26-L30 侧链</tspan>
    <tspan x="1400" dy="22">任务控制台主线</tspan>
  </text>

  <path d="M308 420 C320 420 322 360 336 360" fill="none" stroke="#64748b" stroke-width="3" marker-end="url(#arrow)" />
  <path d="M1332 420 C1342 420 1346 420 1360 420" fill="none" stroke="#64748b" stroke-width="3" marker-end="url(#arrow)" />

  <text class="section" x="76" y="712">升级关注点</text>
  <text class="body" x="76" y="748">
    <tspan x="76" dy="0">1. 新 API 优先沿 L10/L11 的 mission-first 路径扩展，避免重新长出旧双轨数据流。</tspan>
    <tspan x="76" dy="28">2. Agent 控制语义优先接到 L12-L14，保证审批、权限、角色切换后续能继续复用到容器执行。</tspan>
    <tspan x="76" dy="28">3. 如果要继续增强知识与检索，优先沿 L15/L16 的图谱与 RAG 管线扩展，而不是散落到页面级请求。</tspan>
    <tspan x="76" dy="28">4. L17-L21 是第三层控制体验的重要前置，升级时要继续维持“先有服务端语义，再接执行器”的节奏。</tspan>
  </text>
</svg>
